<svg width="18" height="10" viewBox="0 0 18 10" fill="none" xmlns="http://www.w3.org/2000/svg">
<path d="M3.60596e-08 0.824947C0.00295451 0.60752 0.0870743 0.39905 0.235846 0.240461C0.391376 0.0864182 0.601429 7.60516e-07 0.820332 7.50947e-07C1.03924 7.41379e-07 1.24929 0.0864181 1.40482 0.240461L9.02365 7.86954L16.6425 0.240461C16.8019 0.109648 17.0042 0.0427973 17.2102 0.0529121C17.4161 0.0630268 17.6109 0.149384 17.7567 0.295185C17.9025 0.440987 17.9889 0.635808 17.999 0.841754C18.0091 1.0477 17.9423 1.25005 17.8115 1.40943L9.60813 9.61275C9.45261 9.76679 9.24255 9.85321 9.02365 9.85321C8.80475 9.85321 8.59469 9.76679 8.43916 9.61275L0.235846 1.40943C0.0870743 1.25084 0.00295453 1.04237 3.60596e-08 0.824947Z" fill="white"/>
</svg>
